<mxfile host="app.diagrams.net" modified="2020-07-13T03:18:32.163Z" agent="5.0 (X11; Linux x86_64) AppleWebKit/537.36 (KHTML, like Gecko) Chrome/83.0.4103.116 Safari/537.36" etag="7h_tLrkbIZQOq2c2WUUP" version="13.3.1" type="github">
  <diagram id="SI-UAyGJUX2k1_hjnq8z" name="Page-1">
    <mxGraphModel dx="1718" dy="902" grid="1" gridSize="10" guides="1" tooltips="1" connect="1" arrows="1" fold="1" page="1" pageScale="1" pageWidth="850" pageHeight="1100" math="0" shadow="0">
      <root>
        <mxCell id="0" />
        <mxCell id="1" parent="0" />
        <mxCell id="UTyUIGkuHcjqbvWSPc89-2" value="" style="edgeStyle=orthogonalEdgeStyle;rounded=0;orthogonalLoop=1;jettySize=auto;html=1;" edge="1" parent="1" source="P8JLB_Wf0Og4M8j2H3jj-3">
          <mxGeometry relative="1" as="geometry">
            <mxPoint x="250" y="120" as="targetPoint" />
          </mxGeometry>
        </mxCell>
        <mxCell id="P8JLB_Wf0Og4M8j2H3jj-3" value="G2" style="ellipse;whiteSpace=wrap;html=1;" parent="1" vertex="1">
          <mxGeometry x="330" y="100" width="60" height="40" as="geometry" />
        </mxCell>
        <mxCell id="P8JLB_Wf0Og4M8j2H3jj-4" value="G3" style="ellipse;whiteSpace=wrap;html=1;" parent="1" vertex="1">
          <mxGeometry x="450" y="100" width="60" height="40" as="geometry" />
        </mxCell>
        <mxCell id="P8JLB_Wf0Og4M8j2H3jj-5" value="G4" style="ellipse;whiteSpace=wrap;html=1;" parent="1" vertex="1">
          <mxGeometry x="350" y="220" width="60" height="40" as="geometry" />
        </mxCell>
        <mxCell id="P8JLB_Wf0Og4M8j2H3jj-6" value="" style="endArrow=classic;html=1;" parent="1" target="P8JLB_Wf0Og4M8j2H3jj-5" edge="1">
          <mxGeometry width="50" height="50" relative="1" as="geometry">
            <mxPoint x="360" y="140" as="sourcePoint" />
            <mxPoint x="400" y="200" as="targetPoint" />
          </mxGeometry>
        </mxCell>
        <mxCell id="P8JLB_Wf0Og4M8j2H3jj-8" value="" style="endArrow=classic;html=1;" parent="1" edge="1">
          <mxGeometry width="50" height="50" relative="1" as="geometry">
            <mxPoint x="390" y="119.65999999999997" as="sourcePoint" />
            <mxPoint x="450" y="119.65999999999997" as="targetPoint" />
          </mxGeometry>
        </mxCell>
        <mxCell id="P8JLB_Wf0Og4M8j2H3jj-9" value="G6" style="ellipse;whiteSpace=wrap;html=1;" parent="1" vertex="1">
          <mxGeometry x="560" y="140" width="60" height="40" as="geometry" />
        </mxCell>
        <mxCell id="P8JLB_Wf0Og4M8j2H3jj-10" value="G5" style="ellipse;whiteSpace=wrap;html=1;" parent="1" vertex="1">
          <mxGeometry x="560" y="50" width="60" height="40" as="geometry" />
        </mxCell>
        <mxCell id="P8JLB_Wf0Og4M8j2H3jj-11" value="" style="endArrow=classic;html=1;" parent="1" edge="1">
          <mxGeometry width="50" height="50" relative="1" as="geometry">
            <mxPoint x="510" y="120" as="sourcePoint" />
            <mxPoint x="560" y="70" as="targetPoint" />
          </mxGeometry>
        </mxCell>
        <mxCell id="P8JLB_Wf0Og4M8j2H3jj-12" value="" style="endArrow=classic;html=1;exitX=0.931;exitY=0.636;exitDx=0;exitDy=0;exitPerimeter=0;" parent="1" source="P8JLB_Wf0Og4M8j2H3jj-4" edge="1">
          <mxGeometry width="50" height="50" relative="1" as="geometry">
            <mxPoint x="500" y="130" as="sourcePoint" />
            <mxPoint x="560" y="160" as="targetPoint" />
          </mxGeometry>
        </mxCell>
        <mxCell id="P8JLB_Wf0Og4M8j2H3jj-13" value="" style="endArrow=classic;html=1;" parent="1" edge="1">
          <mxGeometry width="50" height="50" relative="1" as="geometry">
            <mxPoint x="280" y="119.65999999999997" as="sourcePoint" />
            <mxPoint x="330" y="119.65999999999997" as="targetPoint" />
          </mxGeometry>
        </mxCell>
        <mxCell id="3_Hqjy2Br-6VLhL3q8H--1" value="G7" style="ellipse;whiteSpace=wrap;html=1;" parent="1" vertex="1">
          <mxGeometry x="370" y="340" width="60" height="40" as="geometry" />
        </mxCell>
        <mxCell id="3_Hqjy2Br-6VLhL3q8H--2" value="G8" style="ellipse;whiteSpace=wrap;html=1;" parent="1" vertex="1">
          <mxGeometry x="510" y="260" width="60" height="40" as="geometry" />
        </mxCell>
        <mxCell id="3_Hqjy2Br-6VLhL3q8H--3" value="" style="endArrow=classic;html=1;" parent="1" edge="1">
          <mxGeometry width="50" height="50" relative="1" as="geometry">
            <mxPoint x="381.98" y="260" as="sourcePoint" />
            <mxPoint x="398.01508839727194" y="340.1754419863594" as="targetPoint" />
          </mxGeometry>
        </mxCell>
        <mxCell id="3_Hqjy2Br-6VLhL3q8H--4" value="" style="endArrow=classic;html=1;" parent="1" target="3_Hqjy2Br-6VLhL3q8H--2" edge="1">
          <mxGeometry width="50" height="50" relative="1" as="geometry">
            <mxPoint x="410" y="239.90999999999997" as="sourcePoint" />
            <mxPoint x="426.0350883972719" y="320.08544198635934" as="targetPoint" />
          </mxGeometry>
        </mxCell>
        <mxCell id="UTyUIGkuHcjqbvWSPc89-3" value="root" style="ellipse;whiteSpace=wrap;html=1;" vertex="1" parent="1">
          <mxGeometry x="200" y="100" width="60" height="40" as="geometry" />
        </mxCell>
        <mxCell id="UTyUIGkuHcjqbvWSPc89-4" value="" style="edgeStyle=orthogonalEdgeStyle;rounded=0;orthogonalLoop=1;jettySize=auto;html=1;" edge="1" source="UTyUIGkuHcjqbvWSPc89-5" parent="1">
          <mxGeometry relative="1" as="geometry">
            <mxPoint x="290" y="680" as="targetPoint" />
          </mxGeometry>
        </mxCell>
        <mxCell id="UTyUIGkuHcjqbvWSPc89-5" value="G2" style="ellipse;whiteSpace=wrap;html=1;" vertex="1" parent="1">
          <mxGeometry x="370" y="660" width="60" height="40" as="geometry" />
        </mxCell>
        <mxCell id="UTyUIGkuHcjqbvWSPc89-6" value="windows" style="ellipse;whiteSpace=wrap;html=1;" vertex="1" parent="1">
          <mxGeometry x="530" y="550" width="60" height="40" as="geometry" />
        </mxCell>
        <mxCell id="UTyUIGkuHcjqbvWSPc89-7" value="mac" style="ellipse;whiteSpace=wrap;html=1;" vertex="1" parent="1">
          <mxGeometry x="550" y="730" width="60" height="40" as="geometry" />
        </mxCell>
        <mxCell id="UTyUIGkuHcjqbvWSPc89-8" value="" style="endArrow=classic;html=1;" edge="1" target="UTyUIGkuHcjqbvWSPc89-7" parent="1">
          <mxGeometry width="50" height="50" relative="1" as="geometry">
            <mxPoint x="400" y="700" as="sourcePoint" />
            <mxPoint x="440" y="760" as="targetPoint" />
          </mxGeometry>
        </mxCell>
        <mxCell id="UTyUIGkuHcjqbvWSPc89-9" value="" style="endArrow=classic;html=1;entryX=0;entryY=0.5;entryDx=0;entryDy=0;" edge="1" parent="1" target="UTyUIGkuHcjqbvWSPc89-6">
          <mxGeometry width="50" height="50" relative="1" as="geometry">
            <mxPoint x="430" y="679.66" as="sourcePoint" />
            <mxPoint x="490" y="679.66" as="targetPoint" />
          </mxGeometry>
        </mxCell>
        <mxCell id="UTyUIGkuHcjqbvWSPc89-14" value="" style="endArrow=classic;html=1;" edge="1" parent="1">
          <mxGeometry width="50" height="50" relative="1" as="geometry">
            <mxPoint x="320" y="679.66" as="sourcePoint" />
            <mxPoint x="370" y="679.66" as="targetPoint" />
          </mxGeometry>
        </mxCell>
        <mxCell id="UTyUIGkuHcjqbvWSPc89-16" value="linux" style="ellipse;whiteSpace=wrap;html=1;" vertex="1" parent="1">
          <mxGeometry x="540" y="630" width="60" height="40" as="geometry" />
        </mxCell>
        <mxCell id="UTyUIGkuHcjqbvWSPc89-18" value="" style="endArrow=classic;html=1;" edge="1" target="UTyUIGkuHcjqbvWSPc89-16" parent="1">
          <mxGeometry width="50" height="50" relative="1" as="geometry">
            <mxPoint x="430" y="680" as="sourcePoint" />
            <mxPoint x="466.0350883972719" y="880.0854419863593" as="targetPoint" />
          </mxGeometry>
        </mxCell>
        <mxCell id="UTyUIGkuHcjqbvWSPc89-19" value="root" style="ellipse;whiteSpace=wrap;html=1;" vertex="1" parent="1">
          <mxGeometry x="240" y="660" width="60" height="40" as="geometry" />
        </mxCell>
        <mxCell id="UTyUIGkuHcjqbvWSPc89-20" value="!G2" style="ellipse;whiteSpace=wrap;html=1;" vertex="1" parent="1">
          <mxGeometry x="350" y="740" width="60" height="40" as="geometry" />
        </mxCell>
        <mxCell id="UTyUIGkuHcjqbvWSPc89-21" value="" style="endArrow=classic;html=1;entryX=0;entryY=0.5;entryDx=0;entryDy=0;" edge="1" parent="1" target="UTyUIGkuHcjqbvWSPc89-20">
          <mxGeometry width="50" height="50" relative="1" as="geometry">
            <mxPoint x="280" y="700" as="sourcePoint" />
            <mxPoint x="320" y="740" as="targetPoint" />
          </mxGeometry>
        </mxCell>
      </root>
    </mxGraphModel>
  </diagram>
</mxfile>
